<svg width="937" height="347" viewBox="0 0 937 347" fill="none" xmlns="http://www.w3.org/2000/svg">
<path d="M79.0088 299.018C75.2926 317.354 60.8376 326.972 42.6957 326.972C18.6431 326.972 4.65625 308.983 4.65625 283.81C4.65625 258.145 20.0476 240.996 43.6321 240.996C51.886 240.665 59.9802 243.315 66.4076 248.452C72.8349 253.589 77.1573 260.864 78.5699 268.921H67.3043C64.8757 258.493 56.5362 250.816 43.2517 250.816C28.4456 250.816 16.9167 262.403 16.9167 283.81C16.9167 304.869 28.0359 317.123 43.6321 317.123C57.0629 317.123 65.139 309.678 67.8018 299.018H79.0088Z" fill="black"/>
<path d="M147.882 294.911C147.882 317.244 132.491 326.978 118.036 326.978C103.581 326.978 88.2188 317.244 88.2188 294.911C88.2188 272.577 103.581 262.844 118.036 262.844C132.491 262.844 147.882 272.577 147.882 294.911ZM118.036 317.795C127.633 317.795 136.646 310.698 136.646 294.911C136.646 278.428 127.633 272.026 118.036 272.026C108.438 272.026 99.4843 278.081 99.4843 294.911C99.4843 311.741 108.438 317.795 118.036 317.795V317.795Z" fill="black"/>
<path d="M159.469 299.013V289.164H196.221V299.013H159.469Z" fill="black"/>
<path d="M220.13 325.468H209.625V242.477H220.13V325.468Z" fill="black"/>
<path d="M247.339 242.477V255.077H236.805V242.477H247.339ZM247.339 263.883V325.468H236.805V263.883H247.339Z" fill="black"/>
<path d="M284.239 311.018L301.122 263.859H311.978L288.569 325.444H279.206L255.797 263.859H267.501L284.239 311.018Z" fill="black"/>
<path d="M330.831 242.477V255.077H320.297V242.477H330.831ZM330.831 263.883V325.468H320.297V263.883H330.831Z" fill="black"/>
<path d="M358.003 273.156C361.573 267.363 367.6 262.844 378.105 262.844C393.145 262.844 398.588 272.461 398.588 286.539V325.471H388.054V289.668C388.054 280.166 386.445 271.939 374.418 271.939C364.235 271.939 358.003 278.805 358.003 292.072V325.5H347.469V263.887H358.003V273.156Z" fill="black"/>
<path d="M456.18 263.875H466.685V317.233C466.685 329.689 464.373 334.961 460.833 338.871C456.326 343.999 448.572 346.982 439.326 346.982C425.105 346.982 415.712 340.58 413.751 328.096H424.988C426.246 333.599 429.845 337.829 439.443 337.829C441.767 338.011 444.104 337.697 446.295 336.907C448.486 336.118 450.48 334.871 452.142 333.252C454.337 330.732 456.209 328.096 456.209 319.637V313.844C454.291 317.31 451.406 320.158 447.899 322.048C444.393 323.937 440.411 324.79 436.429 324.504C422.676 324.504 410.094 313.496 410.094 293.711C410.094 273.927 422.705 262.89 436.429 262.89C440.422 262.625 444.407 263.5 447.913 265.41C451.419 267.32 454.298 270.185 456.209 273.666L456.18 263.875ZM438.945 271.783C428.645 271.783 421.389 279.546 421.389 293.653C421.389 307.76 428.675 315.611 438.945 315.611C448.192 315.611 456.502 309.325 456.502 293.653C456.502 277.982 448.309 271.783 438.945 271.783Z" fill="black"/>
<path d="M540.366 81.3693H685.413V42.3213H540.366V0H492.641V181.394H685.413V141.592H540.366V81.3693Z" fill="black"/>
<path d="M129.51 23.3187L96.0643 16.9749C80.9656 14.0781 68.6466 8.86401 61.6825 0H9.27578C17.0885 34.0946 48.5442 51.3012 85.9107 59.0065L119.005 65.3504C140.015 69.261 163.745 75.8655 171.997 93.1301C174.002 97.4824 175.001 102.222 174.923 107.005C174.923 133.076 148.998 147.56 116.693 147.56C79.444 147.56 55.8595 129.629 47.0226 93.1301H0C6.40819 152.021 49.7439 186.231 114.47 186.231C168.222 186.231 222.736 158.712 222.736 104.022C222.732 100.38 222.498 96.7425 222.033 93.1301C216.21 47.6223 173.84 31.6034 129.51 23.3187Z" fill="black"/>
<path d="M418.216 42.3213H288.209V0H240.484V181.394H288.209V81.3693H418.216V181.394H465.941V0H418.216V42.3213Z" fill="black"/>
<path d="M931.708 0H880.238C885.34 14.9164 887.756 30.6039 887.378 46.3478C887.775 62.2347 885.318 78.0651 880.121 93.1011C863.939 136.147 823.12 143.446 782.564 143.446H758.131V0H710.406V181.394H784.817C856.449 181.394 914.269 160.769 931.621 93.1301C935.368 77.8179 937.167 62.1019 936.975 46.3478C937.159 30.7425 935.39 15.1747 931.708 0Z" fill="black"/>
</svg>
